<svg width="1535" height="727" viewBox="0 0 1535 727" fill="none" xmlns="http://www.w3.org/2000/svg">
<path d="M1399.59 572.609C1399.59 526.645 1399.59 467.624 1399.59 422.952C1399.59 404.442 1400.12 385.909 1399.43 367.423C1397.75 321.531 1363.93 286.999 1321.58 287.262C1279.08 287.525 1245.68 322.32 1244.55 368.284C1243.93 392.748 1244.93 417.261 1244.21 441.725C1242.05 514.257 1183.15 572.752 1113.53 572.106C1044.22 571.461 985.806 513.636 984.715 441.725C983.442 356.948 984.397 272.148 984.42 187.347C984.42 185.052 984.942 182.756 985.374 179.217H1088.16C1088.16 185.984 1088.16 192.848 1088.16 199.711C1088.16 274.348 1088.07 348.985 1088.28 423.622C1088.28 431.25 1088.59 439.501 1091.25 446.388C1096.07 458.8 1106.23 464.276 1118.89 461.885C1132.4 459.326 1139.78 449.545 1140.28 435.579C1141.06 413.506 1140.53 391.409 1140.65 369.312C1141.19 270.02 1212.18 186.989 1303.44 178.858C1401.3 170.129 1485.22 236.611 1500.95 337.315C1504.86 362.401 1503.22 388.492 1503.38 414.128C1503.7 461.789 1503.47 523.775 1503.47 572.585H1399.62L1399.59 572.609Z" fill="#2C5288"/>
<path d="M1101.69 70.98C1100.82 109.219 1071.68 138.514 1035.45 137.606C999.876 136.697 970.803 105.01 971.44 67.8472C972.099 30.0385 1003.15 -1.02627 1039.22 0.025968C1074.57 1.05429 1102.55 32.8365 1101.69 70.98Z" fill="#2C5288"/>
<path d="M104.201 354.15V572.106H0.140645V315.409C-0.268505 215.566 0.345221 115.652 0.345221 15.7614C0.345221 12.4134 0.890755 9.06541 1.2999 3.8999H104.11V33.769C104.11 140.547 104.019 247.349 104.224 354.126L104.201 354.15Z" fill="#2C5288"/>
<path d="M928.64 422.45C928.981 471.929 928.754 521.431 928.754 572.13H820.897V431.609C820.897 412.406 821.443 393.155 820.715 373.975C818.988 326.338 783.846 290.442 739.885 290.729C695.72 290.992 661.078 327.127 659.919 374.86C659.669 384.139 659.669 393.442 659.714 402.72C659.714 407.527 659.783 412.286 659.783 417.093V571.699H552.04V420.034C552.04 414.271 552.108 408.484 552.108 402.72C552.176 393.442 552.176 384.163 551.949 374.86C550.767 327.103 516.103 290.968 471.937 290.729C427.976 290.442 392.857 326.338 391.107 373.975C390.403 393.155 390.948 412.406 390.948 431.609V572.13H283.091C283.091 521.431 282.864 471.929 283.205 422.45C283.387 395.809 281.682 368.714 285.728 342.695C302.049 238.117 389.221 169.077 490.781 178.14C535.787 182.158 575.998 203.705 605.911 236.252C635.825 203.705 676.08 182.158 721.042 178.14C822.625 169.077 909.774 238.117 926.094 342.695C930.14 368.714 928.435 395.833 928.617 422.45H928.64Z" fill="#2C5288"/>
<path d="M659.781 439.692V417.069C659.849 424.602 659.895 432.159 659.781 439.692Z" fill="#2C5288"/>
<path d="M552.107 402.696C552.107 408.46 552.039 414.247 552.039 420.01V402.696H552.107Z" fill="#2C5288"/>
<path d="M659.783 402.696V417.069C659.783 412.262 659.715 407.503 659.715 402.696H659.783Z" fill="#2C5288"/>
<path d="M166.664 112.901V3.92334H270.27V98.2896C270.27 130.789 267.883 155.899 263.11 173.62C258.336 191.341 248.153 205.809 232.583 217.049C216.99 228.288 195.032 234.482 166.664 235.654V189.14C200.351 183.831 217.194 161.974 217.194 123.567C217.194 121.2 217.058 117.66 216.785 112.925H166.664V112.901Z" fill="#2C5288"/>
<path d="M184.69 706.003C184.69 710.068 186.372 711.718 190.441 711.718H215.627L216.354 724.704C206.534 725.804 195.76 725.924 185.304 725.924C173.598 725.924 168.574 718.989 168.574 709.542V648.608H184.667V706.027L184.69 706.003Z" fill="black"/>
<path d="M274.704 649.35L273.977 661.881H245.859C242.313 661.881 240.836 663.651 240.836 667.597V679.363H269.999V691.559H240.836V706.41C240.836 710.595 242.291 712.245 245.859 712.245H273.977L274.704 724.776C264.771 725.876 252.133 725.876 240.722 725.876C230.993 725.876 224.629 719.826 224.629 710.38V663.746C224.629 654.181 231.016 648.25 240.722 648.25C252.11 648.25 264.771 648.25 274.704 649.35Z" fill="black"/>
<path d="M321.118 648.585C323.846 648.585 325.937 650.235 326.755 652.985L347.872 725.565H331.347L326.119 705.334H300.933L295.592 725.565H279.066L300.183 652.985C301.024 650.235 303.115 648.585 305.82 648.585H321.073H321.118ZM312.117 661.331C311.594 663.747 311.185 666.282 310.435 668.601L304.366 692.253H322.55L316.39 668.601C315.754 666.282 315.231 663.771 314.935 661.331H312.117Z" fill="black"/>
<path d="M410.38 670.371C410.38 681.156 406.72 688.067 396.378 689.406V689.956C400.037 690.841 404.629 693.807 406.72 701.627L413.107 725.613H396.06L390.513 702.081C389.354 697.011 387.058 695.6 382.671 695.6L371.283 695.481V725.613H355.395V648.632C364.169 647.748 370.124 647.652 383.308 647.652C402.447 647.652 410.38 652.722 410.38 670.418V670.371ZM371.283 682.352H382.989C391.468 682.352 394.082 679.936 394.082 671.471C394.082 663.005 391.468 660.47 382.989 660.59L371.283 660.709V682.376V682.352Z" fill="black"/>
<path d="M485.465 719.419C485.465 723.484 483.578 725.589 479.714 725.589H469.667C466.212 725.589 464.757 723.939 463.189 720.519L443.959 679.506C442.39 676.086 440.299 671.375 439.458 667.525H438.299C438.821 671.59 439.026 675.775 439.026 679.841V725.589H423.66V654.659C423.66 650.689 425.638 648.608 429.525 648.608H439.344C442.799 648.608 444.254 650.259 445.822 653.559L464.439 693.472C466.007 696.772 467.985 701.507 469.78 705.788H470.826C470.508 701.507 470.19 697.202 470.19 692.922V648.608H485.442V719.443L485.465 719.419Z" fill="black"/>
<path d="M584.249 687.087C584.249 717.984 575.884 727 552.79 727C529.695 727 521.535 717.984 521.535 687.087C521.535 656.189 529.695 647.054 552.79 647.054C575.884 647.054 584.249 656.189 584.249 687.087ZM538.469 687.087C538.469 707.534 541.811 713.273 552.79 713.273C563.769 713.273 567.11 707.558 567.11 687.087C567.11 666.616 563.859 660.805 552.79 660.805C541.72 660.805 538.469 666.64 538.469 687.087Z" fill="black"/>
<path d="M658.261 719.419C658.261 723.484 656.375 725.589 652.511 725.589H642.464C639.009 725.589 637.554 723.939 635.986 720.519L616.755 679.506C615.187 676.086 613.096 671.375 612.255 667.525H611.096C611.618 671.59 611.823 675.775 611.823 679.841V725.589H596.457V654.659C596.457 650.689 598.435 648.608 602.322 648.608H612.141C615.596 648.608 617.051 650.259 618.619 653.559L637.236 693.472C638.804 696.772 640.782 701.507 642.577 705.788H643.623C643.305 701.507 642.987 697.202 642.987 692.922V648.608H658.239V719.443L658.261 719.419Z" fill="black"/>
<path d="M729.77 725.589H713.472V700.192L689.332 648.608H706.153L718.382 676.756C719.632 679.841 720.359 683.356 721.109 686.537H722.269C722.905 683.356 723.632 679.817 724.883 676.756L737.112 648.608H753.728L729.792 700.192V725.589H729.77Z" fill="black"/>
<path d="M821.554 687.087C821.554 717.984 813.189 727 790.094 727C767 727 758.84 717.984 758.84 687.087C758.84 656.189 767 647.054 790.094 647.054C813.189 647.054 821.554 656.189 821.554 687.087ZM775.774 687.087C775.774 707.534 779.116 713.273 790.094 713.273C801.073 713.273 804.415 707.558 804.415 687.087C804.415 666.616 801.164 660.805 790.094 660.805C779.025 660.805 775.774 666.64 775.774 687.087Z" fill="black"/>
<path d="M891.816 694.883C891.816 718.415 884.178 727 863.266 727C841.217 727 833.262 718.415 833.262 694.883V648.585H849.355V694.883C849.355 709.065 852.605 713.25 862.516 713.25C872.427 713.25 875.586 709.065 875.586 694.883V648.585H891.793V694.883H891.816Z" fill="black"/>
<path d="M961.031 670.371C961.031 681.156 957.372 688.067 947.029 689.406V689.956C950.689 690.841 955.281 693.807 957.372 701.627L963.736 725.613H946.688L941.142 702.081C939.983 697.011 937.687 695.6 933.3 695.6L921.912 695.481V725.613H906.023V648.632C914.797 647.748 920.753 647.652 933.937 647.652C953.076 647.652 961.009 652.722 961.009 670.418L961.031 670.371ZM921.935 682.352H933.641C942.12 682.352 944.734 679.936 944.734 671.471C944.734 663.005 942.12 660.47 933.641 660.59L921.935 660.709V682.376V682.352Z" fill="black"/>
<path d="M1030.54 662.455V725.589H1014.24V662.455H992.398V648.608H1052.41V662.455H1030.56H1030.54Z" fill="black"/>
<path d="M1111.14 649.35L1110.41 661.881H1082.3C1078.75 661.881 1077.27 663.651 1077.27 667.597V679.363H1106.44V691.559H1077.27V706.41C1077.27 710.595 1078.73 712.245 1082.3 712.245H1110.41L1111.14 724.776C1101.21 725.876 1088.57 725.876 1077.16 725.876C1067.43 725.876 1061.07 719.826 1061.07 710.38V663.746C1061.07 654.181 1067.45 648.25 1077.16 648.25C1088.55 648.25 1101.21 648.25 1111.14 649.35Z" fill="black"/>
<path d="M1177.84 670.371C1177.84 681.156 1174.18 688.067 1163.83 689.406V689.956C1167.49 690.841 1172.09 693.807 1174.18 701.627L1180.54 725.613H1163.49L1157.95 702.081C1156.79 697.011 1154.49 695.6 1150.1 695.6L1138.72 695.481V725.613H1122.83V648.632C1131.6 647.748 1137.56 647.652 1150.74 647.652C1169.88 647.652 1177.81 652.722 1177.81 670.418L1177.84 670.371ZM1138.74 682.352H1150.45C1158.92 682.352 1161.54 679.936 1161.54 671.471C1161.54 663.005 1158.92 660.47 1150.45 660.59L1138.74 660.709V682.376V682.352Z" fill="black"/>
<path d="M1265.55 648.585C1269.42 648.585 1271.3 650.785 1271.51 654.97L1274.44 725.589H1259.19L1256.69 661.81H1254.92L1243.94 709.543C1243 713.178 1240.91 715.043 1237.34 715.043H1226.68C1223.14 715.043 1220.93 713.178 1220.09 709.543L1209 661.81H1207.11L1205.02 725.589H1189.77L1192.38 654.97C1192.5 650.785 1194.59 648.585 1198.45 648.585H1214.02C1217.57 648.585 1219.57 650.45 1220.41 653.966L1229.3 692.468C1230.23 696.103 1230.75 699.738 1231.28 703.253H1232.64C1233.28 699.738 1233.69 696.103 1234.53 692.468L1243.3 653.966C1244.23 650.45 1246.32 648.585 1249.89 648.585H1265.58H1265.55Z" fill="black"/>
<path d="M1335.7 650.14L1334.65 661.69C1328.49 661.475 1319.49 661.355 1311.65 661.355C1303.81 661.355 1301.1 661.786 1301.1 668.386C1301.1 673.767 1303.2 675.106 1308.74 677.067L1322.65 682.137C1334.36 686.418 1338.13 693.568 1338.13 704.784C1338.13 722.385 1330.93 727.001 1310.95 727.001C1306.35 727.001 1297.04 726.666 1285.85 724.131L1286.78 711.815C1300.38 712.15 1306.33 712.365 1310.92 712.365C1319.49 712.365 1321.79 711.145 1321.79 704.88C1321.79 699.379 1319.81 698.184 1314.88 696.414L1300.15 690.914C1288.97 686.848 1284.99 679.817 1284.99 668.362C1284.99 650.761 1292.72 647.031 1311.54 647.031C1318.74 647.031 1327.54 647.7 1335.68 650.116L1335.7 650.14Z" fill="black"/>
<path d="M1429.51 109.937V56.1056H1413.37V43.144H1460.06V56.1056H1444.28V109.937H1429.53H1429.51Z" fill="black"/>
<path d="M1466.29 109.937V43.144H1489.45L1500.65 83.7985L1511.38 43.144H1535V109.937H1520.25V63.5669H1519.04L1507.29 108.359H1493.95L1482.29 63.5669H1481.08V109.937H1466.33H1466.29Z" fill="black"/>
</svg>
